<?xml version="1.0" encoding="utf-8"?>
<!-- Generator: Adobe Illustrator 23.0.4, SVG Export Plug-In . SVG Version: 6.00 Build 0)  -->
<svg version="1.1" id="Layer_1" xmlns="http://www.w3.org/2000/svg" xmlns:xlink="http://www.w3.org/1999/xlink" x="0px" y="0px"
	 viewBox="0 0 50 50" enable-background="new 0 0 50 50" xml:space="preserve">
<path fill="#FFFFFF" d="M27.92,25l8.84-8.84l1.82-1.82c0.27-0.27,0.27-0.71,0-0.97l-1.95-1.95c-0.27-0.27-0.71-0.27-0.97,0L25,22.08
	L14.34,11.42c-0.27-0.27-0.71-0.27-0.97,0l-1.95,1.95c-0.27,0.27-0.27,0.71,0,0.97L22.08,25L11.42,35.66
	c-0.27,0.27-0.27,0.71,0,0.97l1.95,1.95c0.27,0.27,0.71,0.27,0.97,0L25,27.92l8.84,8.84l1.82,1.82c0.27,0.27,0.71,0.27,0.97,0
	l1.95-1.95c0.27-0.27,0.27-0.71,0-0.97L27.92,25z"/>
</svg>
