<?xml version="1.0" encoding="utf-8"?>
<!-- Generator: Adobe Illustrator 23.0.4, SVG Export Plug-In . SVG Version: 6.00 Build 0)  -->
<svg version="1.1" id="Layer_1" xmlns="http://www.w3.org/2000/svg" xmlns:xlink="http://www.w3.org/1999/xlink" x="0px" y="0px"
	 viewBox="0 0 50 50" enable-background="new 0 0 50 50" xml:space="preserve">
<path fill="#FFFFFF" d="M24.53,11.36l-0.44,0.44c-0.29,0.29-0.29,0.76,0,1.05l11.09,11.09H11.83c-0.41,0-0.75,0.33-0.75,0.75v0.62
	c0,0.41,0.33,0.75,0.75,0.75h23.35L24.09,37.14c-0.29,0.29-0.29,0.76,0,1.05l0.44,0.44c0.29,0.29,0.76,0.29,1.05,0l13.11-13.11
	c0.29-0.29,0.29-0.76,0-1.05L25.59,11.36C25.29,11.07,24.82,11.07,24.53,11.36z"/>
</svg>
