<?xml version="1.0" encoding="utf-8"?>
<!-- Generator: Adobe Illustrator 23.0.4, SVG Export Plug-In . SVG Version: 6.00 Build 0)  -->
<svg version="1.1" id="Layer_1" xmlns="http://www.w3.org/2000/svg" xmlns:xlink="http://www.w3.org/1999/xlink" x="0px" y="0px"
	 viewBox="0 0 50 50" style="enable-background:new 0 0 50 50;" xml:space="preserve">
<style type="text/css">
	.st0{fill:#FFFFFF;}
</style>
<path class="st0" d="M14.2,38.7h5.9c1.6,0,2.9-1.3,2.9-2.9V14.2c0-1.6-1.3-2.9-2.9-2.9h-5.9c-1.6,0-2.9,1.3-2.9,2.9v21.6
	C11.3,37.4,12.6,38.7,14.2,38.7z M13.2,14.2c0-0.5,0.4-1,1-1h5.9c0.5,0,1,0.4,1,1v21.6c0,0.5-0.4,1-1,1h-5.9c-0.5,0-1-0.4-1-1V14.2z
	 M29.9,38.7h5.9c1.6,0,2.9-1.3,2.9-2.9V14.2c0-1.6-1.3-2.9-2.9-2.9h-5.9c-1.6,0-2.9,1.3-2.9,2.9v21.6C27,37.4,28.3,38.7,29.9,38.7z
	 M28.9,14.2c0-0.5,0.4-1,1-1h5.9c0.5,0,1,0.4,1,1v21.6c0,0.5-0.4,1-1,1h-5.9c-0.5,0-1-0.4-1-1V14.2z"/>
</svg>
