<?xml version="1.0" encoding="utf-8"?>
<!-- Generator: Adobe Illustrator 23.0.4, SVG Export Plug-In . SVG Version: 6.00 Build 0)  -->
<svg version="1.1" id="Layer_1" xmlns="http://www.w3.org/2000/svg" xmlns:xlink="http://www.w3.org/1999/xlink" x="0px" y="0px"
	 viewBox="0 0 50 50" enable-background="new 0 0 50 50" xml:space="preserve">
<path fill="#FFFFFF" d="M25.47,38.64l0.44-0.44c0.29-0.29,0.29-0.76,0-1.05L14.82,26.06h23.35c0.41,0,0.75-0.33,0.75-0.75v-0.62
	c0-0.41-0.33-0.75-0.75-0.75H14.82l11.09-11.09c0.29-0.29,0.29-0.76,0-1.05l-0.44-0.44c-0.29-0.29-0.76-0.29-1.05,0L11.31,24.47
	c-0.29,0.29-0.29,0.76,0,1.05l13.11,13.11C24.71,38.93,25.18,38.93,25.47,38.64z"/>
</svg>
